<svg width="80" height="80" viewBox="0 0 80 80" fill="none" xmlns="http://www.w3.org/2000/svg">
<path d="M5.82861 38.2833H23.4469V79.4809H5.82861V38.2833Z" fill="#3E4347"/>
<path d="M78.4211 52.9872C78.1562 51.3976 76.4341 50.0729 74.8445 50.0729H19.3403C17.7507 50.0729 16.1611 51.3976 15.7637 52.9872C14.3066 60.8028 14.3066 68.7509 15.7637 76.5665C16.0286 78.1562 17.7507 79.4808 19.3403 79.4808H74.8445C76.4341 79.4808 78.0237 78.1562 78.4211 76.5665C79.8783 68.7509 79.8783 60.8028 78.4211 52.9872ZM72.4601 26.3611C72.3276 24.7715 70.8704 23.4468 69.2808 23.4468H22.1222C20.5326 23.4468 19.0754 24.7715 18.9429 26.3611L17.0884 44.1118H74.1822L72.4601 26.3611Z" fill="#62727A"/>
<path d="M74.1821 44.112H15.6312L14.9689 50.073H74.712L74.1821 44.112ZM41.8599 67.6913H20.0027C18.678 67.6913 17.6182 66.6316 17.6182 65.1744V55.3718C17.6182 54.0471 18.678 52.8549 20.0027 52.8549H41.8599C43.1846 52.8549 44.2443 53.9146 44.2443 55.3718V65.1744C44.1119 66.6316 43.0521 67.6913 41.8599 67.6913ZM20.0027 54.577C19.6053 54.577 19.2079 54.9744 19.2079 55.3718V65.1744C19.2079 65.5718 19.6053 65.9692 20.0027 65.9692H41.8599C42.2573 65.9692 42.6547 65.5718 42.6547 65.1744V55.3718C42.6547 54.9744 42.2573 54.577 41.8599 54.577H20.0027Z" fill="#3E4347"/>
<path d="M33.9119 58.8158C33.9119 59.6106 33.2495 60.2729 32.4547 60.2729H22.1222C21.3274 60.2729 20.665 59.6106 20.665 58.8158V57.3586C20.665 56.5638 21.3274 55.9015 22.1222 55.9015H32.4547C33.2495 55.9015 33.9119 56.5638 33.9119 57.3586V58.8158Z" fill="#C7E755"/>
<path d="M41.1976 59.6107C41.1976 60.0081 40.9327 60.4055 40.4028 60.4055H36.0314C35.634 60.4055 35.2366 60.1406 35.2366 59.6107V58.1535C35.2366 57.7561 35.5015 57.3587 36.0314 57.3587H40.4028C40.8002 57.3587 41.1976 57.6237 41.1976 58.1535V59.6107ZM70.4731 55.2392C70.4731 55.6366 70.2082 56.034 69.6783 56.034H65.3068C64.9094 56.034 64.512 55.7691 64.512 55.2392V53.7821C64.512 53.3847 64.777 52.9873 65.3068 52.9873H69.6783C70.0757 52.9873 70.4731 53.2522 70.4731 53.7821V55.2392ZM26.4937 63.9821C26.4937 64.3795 26.2287 64.7769 25.6989 64.7769H21.3274C20.93 64.7769 20.5326 64.512 20.5326 63.9821V62.525C20.5326 62.1276 20.7975 61.7302 21.3274 61.7302H25.6989C26.0963 61.7302 26.4937 61.9951 26.4937 62.525V63.9821ZM41.1976 63.9821C41.1976 64.3795 40.9327 64.7769 40.4028 64.7769H36.0314C35.634 64.7769 35.2366 64.512 35.2366 63.9821V62.525C35.2366 62.1276 35.5015 61.7302 36.0314 61.7302H40.4028C40.8002 61.7302 41.1976 61.9951 41.1976 62.525V63.9821ZM33.9119 63.9821C33.9119 64.3795 33.6469 64.7769 33.1171 64.7769H28.7456C28.3482 64.7769 27.9508 64.512 27.9508 63.9821V62.525C27.9508 62.1276 28.2157 61.7302 28.7456 61.7302H33.1171C33.5145 61.7302 33.9119 61.9951 33.9119 62.525V63.9821Z" fill="#3E4347"/>
<path d="M39.7405 76.5666C41.35 76.5666 42.6548 75.2619 42.6548 73.6523C42.6548 72.0428 41.35 70.738 39.7405 70.738C38.1309 70.738 36.8262 72.0428 36.8262 73.6523C36.8262 75.2619 38.1309 76.5666 39.7405 76.5666Z" fill="#B2C1C0"/>
<path d="M76.4342 67.6913C76.4342 66.1017 75.1095 64.777 73.5199 64.777C72.3277 64.777 71.2679 65.4393 70.8705 66.4991C70.738 66.6315 70.738 66.8965 70.738 67.0289C70.4731 67.6913 69.9432 67.6913 69.1484 67.6913C66.764 67.6913 64.777 69.6783 64.777 72.0627C64.777 74.4472 66.764 76.4342 69.1484 76.4342C71.5329 76.4342 73.5199 74.4472 73.5199 72.0627C73.5199 71.2679 73.5199 70.8705 74.1822 70.4731C74.3147 70.4731 74.5796 70.3406 74.7121 70.3406C75.6394 69.9432 76.4342 68.8835 76.4342 67.6913Z" fill="#B2C1C0"/>
<path d="M69.0159 74.9769C70.6254 74.9769 71.9302 73.6721 71.9302 72.0626C71.9302 70.4531 70.6254 69.1483 69.0159 69.1483C67.4064 69.1483 66.1016 70.4531 66.1016 72.0626C66.1016 73.6721 67.4064 74.9769 69.0159 74.9769Z" fill="#258399"/>
<path d="M73.3873 69.1483C74.1921 69.1483 74.8445 68.4959 74.8445 67.6912C74.8445 66.8864 74.1921 66.234 73.3873 66.234C72.5826 66.234 71.9302 66.8864 71.9302 67.6912C71.9302 68.4959 72.5826 69.1483 73.3873 69.1483Z" fill="#3E4347"/>
<path d="M67.5587 61.8626C68.3635 61.8626 69.0159 61.2102 69.0159 60.4055C69.0159 59.6007 68.3635 58.9483 67.5587 58.9483C66.7539 58.9483 66.1016 59.6007 66.1016 60.4055C66.1016 61.2102 66.7539 61.8626 67.5587 61.8626Z" fill="#3E4347"/>
<path d="M71.5328 50.073L69.4133 29.4079C69.2808 27.8183 67.8237 26.4936 66.2341 26.4936H25.0365C23.4468 26.4936 21.9897 27.8183 21.8572 29.4079L19.7377 50.073H71.5328Z" fill="#3E4347"/>
<path d="M23.5793 0H67.6912V44.1119H23.5793V0Z" fill="#F5F5F5"/>
<path d="M33.7794 50.073L34.5742 41.86C34.7067 40.6678 35.7664 39.7405 36.9586 39.7405H54.047C55.2392 39.7405 56.299 40.6678 56.4314 41.86L57.2263 50.073H58.6834L57.8886 41.7275C57.7561 39.8729 56.034 38.2833 54.047 38.2833H37.0911C35.1041 38.2833 33.382 39.8729 33.2495 41.7275L32.4547 50.073H33.7794Z" fill="#A4B3B2"/>
<path d="M8.87537 35.7663C6.88834 35.2365 4.90132 35.2365 2.9143 35.7663C1.19221 36.1637 0 38.4157 0 40.0053C0.397404 51.0002 0.397404 62.1275 0.132468 73.1224C-1.28305e-07 76.5665 2.5169 79.4808 5.8286 79.4808C9.1403 79.4808 11.7897 76.5665 11.6572 73.1224C11.3923 62.1275 11.3923 51.0002 11.7897 40.0053C11.7897 38.4157 10.5975 36.1637 8.87537 35.7663Z" fill="#62727A"/>
<path d="M26.4937 5.82864H64.777V8.74294H26.4937V5.82864ZM26.4937 11.7897H64.777V14.704H26.4937V11.7897ZM26.4937 17.6183H64.777V20.5326H26.4937V17.6183ZM26.4937 26.4937H64.777V29.408H26.4937V26.4937ZM26.4937 32.3223H45.5691V35.2366H26.4937V32.3223Z" fill="#A4B3B2"/>
<path d="M20.665 75.1095C21.4698 75.1095 22.1222 74.4571 22.1222 73.6523C22.1222 72.8476 21.4698 72.1952 20.665 72.1952C19.8603 72.1952 19.2079 72.8476 19.2079 73.6523C19.2079 74.4571 19.8603 75.1095 20.665 75.1095Z" fill="#3E4347"/>
<path d="M26.4936 75.1095C27.2984 75.1095 27.9508 74.4571 27.9508 73.6523C27.9508 72.8476 27.2984 72.1952 26.4936 72.1952C25.6889 72.1952 25.0365 72.8476 25.0365 73.6523C25.0365 74.4571 25.6889 75.1095 26.4936 75.1095Z" fill="#3E4347"/>
<path d="M32.3223 75.1095C33.127 75.1095 33.7794 74.4571 33.7794 73.6523C33.7794 72.8476 33.127 72.1952 32.3223 72.1952C31.5175 72.1952 30.8651 72.8476 30.8651 73.6523C30.8651 74.4571 31.5175 75.1095 32.3223 75.1095Z" fill="#3E4347"/>
<path d="M48.3509 73.7848C49.1556 73.7848 49.808 73.1324 49.808 72.3276C49.808 71.5229 49.1556 70.8705 48.3509 70.8705C47.5461 70.8705 46.8937 71.5229 46.8937 72.3276C46.8937 73.1324 47.5461 73.7848 48.3509 73.7848Z" fill="#3E4347"/>
<path d="M54.3119 73.7848C55.1167 73.7848 55.7691 73.1324 55.7691 72.3276C55.7691 71.5229 55.1167 70.8705 54.3119 70.8705C53.5072 70.8705 52.8548 71.5229 52.8548 72.3276C52.8548 73.1324 53.5072 73.7848 54.3119 73.7848Z" fill="#3E4347"/>
<path d="M60.1406 73.7848C60.9453 73.7848 61.5977 73.1324 61.5977 72.3276C61.5977 71.5229 60.9453 70.8705 60.1406 70.8705C59.3358 70.8705 58.6834 71.5229 58.6834 72.3276C58.6834 73.1324 59.3358 73.7848 60.1406 73.7848Z" fill="#3E4347"/>
<path d="M48.3509 68.3535C49.1556 68.3535 49.808 67.7011 49.808 66.8963C49.808 66.0916 49.1556 65.4392 48.3509 65.4392C47.5461 65.4392 46.8937 66.0916 46.8937 66.8963C46.8937 67.7011 47.5461 68.3535 48.3509 68.3535Z" fill="#3E4347"/>
<path d="M54.3119 68.3535C55.1167 68.3535 55.7691 67.7011 55.7691 66.8963C55.7691 66.0916 55.1167 65.4392 54.3119 65.4392C53.5072 65.4392 52.8548 66.0916 52.8548 66.8963C52.8548 67.7011 53.5072 68.3535 54.3119 68.3535Z" fill="#3E4347"/>
<path d="M60.1406 68.3535C60.9453 68.3535 61.5977 67.7011 61.5977 66.8963C61.5977 66.0916 60.9453 65.4392 60.1406 65.4392C59.3358 65.4392 58.6834 66.0916 58.6834 66.8963C58.6834 67.7011 59.3358 68.3535 60.1406 68.3535Z" fill="#3E4347"/>
<path d="M48.3509 62.9223C49.1556 62.9223 49.808 62.2699 49.808 61.4651C49.808 60.6604 49.1556 60.008 48.3509 60.008C47.5461 60.008 46.8937 60.6604 46.8937 61.4651C46.8937 62.2699 47.5461 62.9223 48.3509 62.9223Z" fill="#3E4347"/>
<path d="M54.3119 62.9223C55.1167 62.9223 55.7691 62.2699 55.7691 61.4651C55.7691 60.6604 55.1167 60.008 54.3119 60.008C53.5072 60.008 52.8548 60.6604 52.8548 61.4651C52.8548 62.2699 53.5072 62.9223 54.3119 62.9223Z" fill="#3E4347"/>
<path d="M60.1406 62.9223C60.9453 62.9223 61.5977 62.2699 61.5977 61.4651C61.5977 60.6604 60.9453 60.008 60.1406 60.008C59.3358 60.008 58.6834 60.6604 58.6834 61.4651C58.6834 62.2699 59.3358 62.9223 60.1406 62.9223Z" fill="#3E4347"/>
<path d="M48.3509 57.4911C49.1556 57.4911 49.808 56.8388 49.808 56.034C49.808 55.2292 49.1556 54.5768 48.3509 54.5768C47.5461 54.5768 46.8937 55.2292 46.8937 56.034C46.8937 56.8388 47.5461 57.4911 48.3509 57.4911Z" fill="#3E4347"/>
<path d="M54.3119 57.4911C55.1167 57.4911 55.7691 56.8388 55.7691 56.034C55.7691 55.2292 55.1167 54.5768 54.3119 54.5768C53.5072 54.5768 52.8548 55.2292 52.8548 56.034C52.8548 56.8388 53.5072 57.4911 54.3119 57.4911Z" fill="#3E4347"/>
<path d="M60.1406 57.4911C60.9453 57.4911 61.5977 56.8388 61.5977 56.034C61.5977 55.2292 60.9453 54.5768 60.1406 54.5768C59.3358 54.5768 58.6834 55.2292 58.6834 56.034C58.6834 56.8388 59.3358 57.4911 60.1406 57.4911Z" fill="#3E4347"/>
</svg>
