<svg width="64" height="64" viewBox="0 0 64 64" fill="none" xmlns="http://www.w3.org/2000/svg">
<path d="M28.7605 21.8561L23.1682 27.6481L17.6757 21.956L23.1682 16.1639L28.7605 21.8561Z" fill="#3E4347"/>
<path d="M16.6771 5.07917L6.89053 15.1653C6.49108 15.5648 6.49108 16.1639 6.89053 16.4635L10.5855 20.2583L14.2804 24.0531C14.6798 24.4525 15.1791 24.4525 15.5786 24.0531L25.3651 13.967C25.7646 13.5675 25.7646 12.9683 25.3651 12.6687L17.9753 5.07917C17.6757 4.67972 17.0765 4.67972 16.6771 5.07917ZM0.299588 21.956C-0.0998628 22.3554 -0.0998628 22.9546 0.299588 23.2542L7.58957 30.9436C7.98902 31.3431 8.5882 31.3431 8.98765 30.9436C8.98765 30.9436 10.9849 28.8465 11.0848 28.7466L2.49657 19.8589C2.29684 19.8589 0.299588 21.956 0.299588 21.956Z" fill="#94989B"/>
<path d="M10.4856 20.3581L6.79067 16.5634C6.79067 16.5634 7.98902 18.6605 4.79341 19.0599C3.4952 19.2597 2.6963 19.4594 2.29684 19.8588L10.885 28.7466C11.2845 28.2473 11.4842 27.4484 11.6839 26.1502C12.0834 22.8547 14.0807 24.1529 14.0807 24.1529L10.4856 20.3581ZM39.5457 4.28024C29.4595 -6.00563 18.3748 5.47859 18.3748 5.47859L24.8658 12.1694C24.8658 12.1694 31.1572 3.68106 39.0463 6.07776C39.9451 6.37735 40.744 6.7768 41.0436 6.57708C41.4431 6.27749 40.2447 4.97927 39.5457 4.28024Z" fill="#3E4347"/>
<path d="M25.9643 24.7521L22.3692 28.447C22.3692 28.447 24.2666 31.4429 27.4622 34.7384C30.9574 38.3334 35.651 40.4305 40.3446 45.224C47.3349 52.4141 53.127 60.2034 55.2241 63.0994C56.023 64.1979 56.1229 64.098 57.1215 63.0994L60.1174 60.0036L25.9643 24.7521Z" fill="#F2B200"/>
<path d="M25.9643 24.7521L29.5594 21.0572C29.5594 21.0572 32.4554 22.9546 35.651 26.2501C39.1462 29.8451 41.1435 34.7384 45.837 39.5318C52.8274 46.7219 60.3171 52.7137 63.2131 54.9107C64.3116 55.7096 64.2118 55.9093 63.2131 56.9079L60.2173 60.0037L25.9643 24.7521Z" fill="#FFCE31"/>
</svg>
